<?xml version="1.0" encoding="utf-8"?>
<!-- Generator: Adobe Illustrator 23.0.3, SVG Export Plug-In . SVG Version: 6.00 Build 0)  -->
<svg version="1.1" id="Layer_1" xmlns="http://www.w3.org/2000/svg" xmlns:xlink="http://www.w3.org/1999/xlink" x="0px" y="0px"
	 viewBox="0 0 78 76.08" style="enable-background:new 0 0 78 76.08;" xml:space="preserve">
<style type="text/css">
	.st0{fill-rule:evenodd;clip-rule:evenodd;fill:#181616;}
	.st1{fill:#181616;}
</style>
<g>
	<path class="st0" d="M39,0C17.46,0,0,17.46,0,39c0,17.23,11.17,31.85,26.67,37.01c1.95,0.37,2.66-0.84,2.66-1.88
		c0-0.93-0.03-4.01-0.06-7.26c-10.85,2.36-13.14-4.6-13.14-4.6c-1.78-4.5-4.33-5.7-4.33-5.7c-3.54-2.42,0.27-2.37,0.27-2.37
		c3.92,0.28,5.98,4.02,5.98,4.02c3.48,5.96,9.12,4.24,11.35,3.24c0.36-2.52,1.36-4.24,2.47-5.21c-8.66-0.99-17.77-4.33-17.77-19.27
		c0-4.26,1.52-7.73,4.02-10.47c-0.4-0.99-1.74-4.95,0.38-10.32c0,0,3.27-1.04,10.73,3.99c3.11-0.87,6.45-1.3,9.76-1.31
		c3.32,0.01,6.66,0.44,9.77,1.31c7.44-5.05,10.72-3.99,10.72-3.99c2.12,5.37,0.79,9.34,0.39,10.32c2.5,2.73,4.02,6.21,4.02,10.47
		c0,14.98-9.12,18.27-17.81,19.24c1.39,1.21,2.63,3.58,2.63,7.22c0,5.21-0.04,9.42-0.04,10.71c0,1.04,0.7,2.25,2.67,1.88
		C66.83,70.85,78,56.23,78,39.01C78,17.46,60.53,0,39,0z"/>
	<path class="st1" d="M14.77,56c-0.09,0.2-0.39,0.26-0.67,0.12c-0.29-0.12-0.44-0.39-0.36-0.59c0.09-0.2,0.39-0.26,0.68-0.12
		C14.71,55.54,14.87,55.81,14.77,56L14.77,56z"/>
	<path class="st1" d="M16.35,57.76c-0.19,0.18-0.55,0.09-0.8-0.18c-0.26-0.28-0.3-0.63-0.11-0.81c0.19-0.18,0.54-0.09,0.8,0.18
		C16.5,57.23,16.54,57.58,16.35,57.76L16.35,57.76z"/>
	<path class="st1" d="M17.88,60c-0.24,0.17-0.63,0.01-0.88-0.33c-0.24-0.34-0.24-0.77,0.01-0.93c0.24-0.17,0.63-0.01,0.88,0.33
		C18.13,59.42,18.13,59.83,17.88,60L17.88,60z"/>
	<path class="st1" d="M19.99,62.17c-0.21,0.23-0.67,0.18-1-0.14c-0.34-0.31-0.43-0.77-0.22-1c0.22-0.23,0.68-0.17,1.01,0.14
		C20.11,61.5,20.23,61.94,19.99,62.17L19.99,62.17z"/>
	<path class="st1" d="M22.9,63.44c-0.1,0.31-0.53,0.44-0.98,0.31c-0.44-0.13-0.73-0.49-0.64-0.8c0.09-0.31,0.53-0.45,0.98-0.31
		C22.7,62.77,22.99,63.13,22.9,63.44L22.9,63.44z"/>
	<path class="st1" d="M26.09,63.67c0.01,0.32-0.37,0.59-0.83,0.6s-0.84-0.26-0.85-0.57c0-0.32,0.37-0.59,0.83-0.6
		C25.72,63.1,26.09,63.35,26.09,63.67L26.09,63.67z"/>
	<path class="st1" d="M29.06,63.16c0.06,0.31-0.27,0.63-0.73,0.72c-0.45,0.09-0.88-0.11-0.93-0.42c-0.06-0.32,0.28-0.64,0.72-0.73
		C28.59,62.65,29,62.84,29.06,63.16L29.06,63.16z"/>
</g>
</svg>
