<?xml version="1.0" encoding="utf-8"?>
<!-- Generator: Adobe Illustrator 23.0.3, SVG Export Plug-In . SVG Version: 6.00 Build 0)  -->
<svg version="1.1" id="Layer_1" xmlns="http://www.w3.org/2000/svg" xmlns:xlink="http://www.w3.org/1999/xlink" x="0px" y="0px"
	 viewBox="0 0 48 48" style="enable-background:new 0 0 48 48;" xml:space="preserve">
<style type="text/css">
	.st0{enable-background:new    ;}
</style>
<g>
	<g>
		<g class="st0">
			<g>
				<polygon points="33.94,30.53 31.2,29.04 42.71,27.42 45.45,28.91 				"/>
			</g>
			<g>
				<polygon points="45.48,8.73 45.47,14.94 33.96,16.55 33.94,30.53 45.45,28.91 45.44,35.12 28.17,37.54 28.22,11.16 				"/>
			</g>
			<g>
				<polygon points="28.17,37.54 25.44,36.05 25.49,9.67 28.22,11.16 				"/>
			</g>
			<g>
				<polygon points="28.22,11.16 25.49,9.67 42.75,7.24 45.48,8.73 				"/>
			</g>
		</g>
		<g class="st0">
			<g>
				<polygon points="19.24,38.8 16.51,37.31 16.54,17.13 19.28,18.62 				"/>
			</g>
			<g>
				<polygon points="25.04,11.6 24.99,37.99 19.24,38.8 19.28,18.62 11.04,19.78 11,39.96 5.25,40.76 5.3,14.38 				"/>
			</g>
			<g>
				<polygon points="5.25,40.76 2.51,39.28 2.56,12.89 5.3,14.38 				"/>
			</g>
			<g>
				<polygon points="5.3,14.38 2.56,12.89 22.31,10.11 25.04,11.6 				"/>
			</g>
		</g>
	</g>
</g>
</svg>
